<?xml version="1.0"?>
<svg xmlns="http://www.w3.org/2000/svg" xmlns:xlink="http://www.w3.org/1999/xlink" version="1.1" id="Capa_1" x="0px" y="0px" viewBox="0 0 491.52 491.52" style="enable-background:new 0 0 491.52 491.52;" xml:space="preserve" width="512px" height="512px" class=""><g><circle style="fill:#2C3E50" cx="245.76" cy="245.76" r="245.76" data-original="#EFC84A" class="" data-old_color="#EFC84A"/><rect x="239.561" y="167.411" transform="matrix(0.7071 0.7071 -0.7071 0.7071 270.011 -97.9484)" style="fill:#E74C3C" width="27.361" height="219.106" data-original="#CE412D" class="" data-old_color="#CE412D"/><rect x="220.208" y="148.07" transform="matrix(0.7071 0.7071 -0.7071 0.7071 250.6759 -89.9278)" style="fill:#E74C3C" width="27.361" height="219.106" data-original="#D15241" class="" data-old_color="#D15241"/><rect x="200.824" y="128.76" transform="matrix(0.7071 0.7071 -0.7071 0.7071 231.3396 -81.8775)" style="fill:#E74C3C" width="27.361" height="219.106" data-original="#E56353" class="" data-old_color="#E56353"/><rect x="273.751" y="171.91" transform="matrix(0.7071 0.7071 -0.7071 0.7071 217.175 -170.8201)" style="fill:#7B8A8B" width="82.073" height="9.672" data-original="#44C4A1" class="" data-old_color="#44C4A1"/><path style="fill:#18BC9C" d="M384.039,153.357l-13.263-13.263l-42.92,42.92l19.348,19.348l36.835-36.836  C387.4,162.166,387.4,156.718,384.039,153.357z" data-original="#2F4859" class="" data-old_color="#2F4859"/><rect x="309.299" y="138.218" transform="matrix(-0.7071 0.7071 -0.7071 -0.7071 687.2249 19.1441)" style="fill:#18BC9C" width="60.698" height="27.367" data-original="#3A556A" class="" data-old_color="#3A556A"/><path style="fill:#18BC9C" d="M351.427,120.744l-13.263-13.263c-3.362-3.362-8.808-3.361-12.169,0l-36.836,36.835l19.348,19.348  L351.427,120.744z" data-original="#64798A" class="" data-old_color="#64798A"/><path style="fill:#ECF0F1" d="M127.388,306.086l-15.003,50.556c5.797-0.109,11.629,2.014,16.054,6.439  c4.424,4.424,6.545,10.255,6.438,16.053l50.556-15.003L127.388,306.086z" data-original="#FCD462" class="active-path" data-old_color="#FCD462"/><path style="fill:#18BC9C" d="M128.44,363.082c-4.425-4.425-10.257-6.547-16.054-6.439l-7.242,24.405  c-0.969,3.261,2.067,6.298,5.33,5.33l24.404-7.242C134.985,373.337,132.864,367.505,128.44,363.082z" data-original="#64798A" class="" data-old_color="#64798A"/></g> </svg>
