<?xml version="1.0" standalone="no"?>
<!DOCTYPE svg PUBLIC "-//W3C//DTD SVG 20010904//EN"
 "http://www.w3.org/TR/2001/REC-SVG-20010904/DTD/svg10.dtd">
<svg version="1.0" xmlns="http://www.w3.org/2000/svg"
 width="512.000000pt" height="512.000000pt" viewBox="0 0 512.000000 512.000000"
 preserveAspectRatio="xMidYMid meet">
<metadata>
Created by potrace 1.11, written by Peter Selinger 2001-2013
</metadata>
<g transform="translate(0.000000,512.000000) scale(0.100000,-0.100000)"
fill="#000000" stroke="none">
<path d="M2236 5104 c-345 -44 -747 -187 -1028 -365 -233 -148 -490 -376 -650
-579 -298 -376 -486 -825 -544 -1300 -20 -165 -15 -528 10 -685 70 -439 262
-875 534 -1215 394 -491 947 -817 1572 -927 196 -34 520 -43 724 -19 867 101
1622 635 2007 1420 176 360 259 720 259 1126 0 406 -83 766 -259 1126 -382
779 -1131 1313 -1991 1419 -154 19 -482 18 -634 -1z m1338 -1164 l81 -79 -220
-221 -220 -220 -97 97 c-54 54 -98 95 -98 93 0 -3 134 -138 297 -300 164 -162
254 -250 200 -195 l-97 100 220 220 221 220 79 -81 c68 -69 80 -86 80 -115 0
-32 -70 -104 -1045 -1079 l-1045 -1045 -97 98 -98 97 805 805 805 805 97 -97
c54 -54 98 -95 98 -93 0 3 -134 138 -297 300 -164 162 -254 250 -201 195 l98
-100 -805 -805 -805 -805 -97 98 -98 97 1045 1045 c975 975 1047 1045 1079
1045 29 0 46 -12 115 -80z m186 -185 l95 -95 -220 -220 -220 -220 -97 97 -98
98 217 217 c120 120 220 218 223 218 3 0 48 -43 100 -95z m-1225 -1415 l-805
-805 -97 98 -98 97 805 805 805 805 97 -97 98 -98 -805 -805z m-623 -1011 c-6
-6 -481 -149 -494 -149 -4 0 -9 10 -11 23 -4 20 -4 19 -6 -4 -1 -25 -8 -28
-127 -63 -135 -40 -167 -42 -172 -12 -2 11 13 77 34 148 35 120 39 128 63 129
24 2 24 2 4 6 -13 2 -23 7 -23 10 0 9 142 487 148 497 2 4 137 -124 298 -285
161 -161 290 -296 286 -300z"/>
<path d="M1297 1364 c22 -15 52 -45 67 -67 14 -23 26 -36 26 -31 0 6 -11 25
-24 43 -26 34 -83 81 -100 81 -5 0 8 -12 31 -26z"/>
</g>
</svg>
